<?xml version="1.0" encoding="utf-8"?>
<!-- Uploaded to: SVG Repo, www.svgrepo.com, Generator: SVG Repo Mixer Tools -->
<svg width="800px" height="800px" viewBox="0 0 64 64" xmlns="http://www.w3.org/2000/svg" xmlns:xlink="http://www.w3.org/1999/xlink">
  <defs>
    <clipPath id="clip-Artboard_6">
      <rect width="64" height="64"/>
    </clipPath>
  </defs>
  <g id="Artboard_6" data-name="Artboard 6" clip-path="url(#clip-Artboard_6)">
    <g id="Layer_7" data-name="Layer 7" transform="translate(0 -84)">
      <g id="Group_1128" data-name="Group 1128">
        <path id="Path_802" data-name="Path 802" d="M9.01,108.824l.015,18.033.907.928,25.616.254,2.473,1.056s11.452,2.8,15.586-6.242S50.2,107.989,50.2,107.989s-5.569-4.317-11.621-1.8l-1.916-3.356-1.934-.809-10.946.149-1.138,1.205-1.858,4.246-1.943.014-.453-.258-1.438-1.742-3.834-.53L11.8,106.485l-.719.839-1.2.419" fill="#51dacf"/>
        <path id="Path_803" data-name="Path 803" d="M12,128V107.637l-1.741.106L9.08,109.3l.36,17.915" fill="#76f4e8"/>
        <path id="Path_804" data-name="Path 804" d="M14,108v-3.363l-2,2.087V108" fill="#76f4e8"/>
        <path id="Path_805" data-name="Path 805" d="M24.122,103.615l.218.9,2.745.088,8.347-.178.535-.211L35.4,104H25" fill="#76f4e8"/>
        <path id="Path_806" data-name="Path 806" d="M22.88,107.563l1.42-3.143-.419-.6.553-.553.3-.02.719-1.258-1.678.18-1.737,1.917-1.258,3.535" fill="#76f4e8"/>
        <circle id="Ellipse_83" data-name="Ellipse 83" cx="6.072" cy="6.072" r="6.072" transform="translate(36.697 111.536)" fill="none" stroke="#76f4e8" stroke-miterlimit="10" stroke-width="1"/>
        <path id="Path_807" data-name="Path 807" d="M18.338,107.916l.046,19.858L20,127.754V108" fill="#47aed6"/>
        <path id="Path_808" data-name="Path 808" d="M15.93,105.348,15.84,108h2l.307-1.274-1.019-1.2" fill="#47aed6"/>
        <path id="Path_809" data-name="Path 809" d="M34.324,102.171l.719.9.659.6.06.539,1.2,2.756,1.318-.839-.539-2.037-1.5-1.8" fill="#47aed6"/>
        <circle id="Ellipse_84" data-name="Ellipse 84" cx="9.346" cy="9.346" r="9.346" transform="translate(33.425 108.103)" fill="none" stroke="#47aed6" stroke-miterlimit="10" stroke-width="1"/>
        <path id="Path_810" data-name="Path 810" d="M30,108v19.637l5.422.3-2.6-3L31,119.187v-2.549l1.007-4.7,3.275-4.073" fill="#47aed6"/>
        <g id="Group_1127" data-name="Group 1127">
          <g id="Group_1126" data-name="Group 1126">
            <path id="Path_811" data-name="Path 811" d="M35.87,127.818H10.67a1.509,1.509,0,0,1-1.51-1.511v-17.34a1.508,1.508,0,0,1,1.51-1.509h25.2" fill="none" stroke="#1a2f4b" stroke-miterlimit="10" stroke-width="1"/>
            <path id="Path_812" data-name="Path 812" d="M38.43,106.158a12.084,12.084,0,0,1,4.19-.741,12.229,12.229,0,1,1-8.25,3.21,12.076,12.076,0,0,1,1.5-1.169A11.809,11.809,0,0,1,38.43,106.158Z" fill="none" stroke="#1a2f4b" stroke-miterlimit="10" stroke-width="1"/>
            <path id="Path_813" data-name="Path 813" d="M47.83,111.118a8.1,8.1,0,1,1-5.11-1.811A8.071,8.071,0,0,1,47.83,111.118Z" fill="none" stroke="#1a2f4b" stroke-miterlimit="10" stroke-width="0.75"/>
            <path id="Path_814" data-name="Path 814" d="M11.34,107.637a1.075,1.075,0,0,1,.01-.179,2.5,2.5,0,0,1,2.49-2.321h2a2.5,2.5,0,0,1,2.49,2.321,1.075,1.075,0,0,1,.01.179v20.28" fill="none" stroke="#1a2f4b" stroke-miterlimit="10" stroke-width="0.75"/>
            <path id="Path_815" data-name="Path 815" d="M20.66,107.458l1.71-3.77a2.829,2.829,0,0,1,2.58-1.671h9.78a2.829,2.829,0,0,1,2.58,1.671l1.12,2.47" fill="none" stroke="#1a2f4b" stroke-miterlimit="10" stroke-width="0.75"/>
          </g>
        </g>
        <circle id="Ellipse_85" data-name="Ellipse 85" cx="3.686" cy="3.686" r="3.686" transform="translate(39.168 113.739)" fill="#1a2f4b"/>
        <circle id="Ellipse_86" data-name="Ellipse 86" cx="1.419" cy="1.419" r="1.419" transform="translate(42.356 115.006)" fill="#ffffff" opacity="0.5"/>
        <rect id="Rectangle_178" data-name="Rectangle 178" width="12.069" height="1.106" rx="0.553" transform="translate(23.881 103.27)" fill="none" stroke="#1a2f4b" stroke-miterlimit="10" stroke-width="0.75"/>
        <circle id="Ellipse_87" data-name="Ellipse 87" cx="0.763" cy="0.763" r="0.763" transform="translate(43.829 115.058)" fill="#ffffff" opacity="0.5"/>
      </g>
    </g>
  </g>
</svg>